HIERARCHY
ROOT Hips
{
	OFFSET 0.000000 103.266502 0.000000
	CHANNELS 6 Xposition Yposition Zposition Xrotation Yrotation Zrotation 
	JOINT Spine
	{
		OFFSET -0.002400 12.777504 0.315300
		CHANNELS 3 Xrotation Yrotation Zrotation
		JOINT Spine1
		{
			OFFSET -0.002067 5.816869 0.032633
			CHANNELS 3 Xrotation Yrotation Zrotation
			JOINT Spine1_split
			{
				OFFSET -0.002067 5.816869 0.032633
				CHANNELS 3 Xrotation Yrotation Zrotation
				JOINT Spine2
				{
					OFFSET -0.002067 5.816869 0.032633
					CHANNELS 3 Xrotation Yrotation Zrotation
					JOINT Neck
					{
						OFFSET -0.003700 21.199493 -0.826900
						CHANNELS 3 Xrotation Yrotation Zrotation
						JOINT Head
						{
							OFFSET 0.000000 20.442200 4.834800
							CHANNELS 3 Xrotation Yrotation Zrotation
							JOINT HeadTop_End
							{
								OFFSET 0.000000 34.668396 4.968400
								CHANNELS 3 Xrotation Yrotation Zrotation
								End Site
								{
									OFFSET 0.000000 0.000000 0.000000
								}
							}
						}
					}
					JOINT LeftShoulder
					{
						OFFSET 3.288150 8.794197 -1.372250
						CHANNELS 3 Xrotation Yrotation Zrotation
						JOINT LeftShoulder_split
						{
							OFFSET 3.288150 8.794197 -1.372250
							CHANNELS 3 Xrotation Yrotation Zrotation
							JOINT LeftArm
							{
								OFFSET 11.953299 -2.279007 -0.146200
								CHANNELS 3 Xrotation Yrotation Zrotation
								JOINT LeftForeArm
								{
									OFFSET 18.448900 0.000000 0.000000
									CHANNELS 3 Xrotation Yrotation Zrotation
									JOINT LeftHand
									{
										OFFSET 29.527798 0.000000 0.000000
										CHANNELS 3 Xrotation Yrotation Zrotation
										JOINT LeftHandThumb1
										{
											OFFSET 10.739754 -2.369614 9.225399
											CHANNELS 3 Xrotation Yrotation Zrotation
											JOINT LeftHandThumb2
											{
												OFFSET 4.926170 -2.844131 2.844125
												CHANNELS 3 Xrotation Yrotation Zrotation
												JOINT LeftHandThumb3
												{
													OFFSET 4.614891 -2.664413 2.664409
													CHANNELS 3 Xrotation Yrotation Zrotation
													JOINT LeftHandThumb4
													{
														OFFSET 4.432465 -2.559082 2.559083
														CHANNELS 3 Xrotation Yrotation Zrotation
														End Site
														{
															OFFSET 0.000000 0.000000 0.000000
														}
													}
												}
											}
										}
										JOINT LeftHandIndex1
										{
											OFFSET 26.467674 0.187653 6.405298
											CHANNELS 3 Xrotation Yrotation Zrotation
											JOINT LeftHandIndex2
											{
												OFFSET 8.792900 0.000000 0.000000
												CHANNELS 3 Xrotation Yrotation Zrotation
												JOINT LeftHandIndex3
												{
													OFFSET 10.075203 0.000000 0.000000
													CHANNELS 3 Xrotation Yrotation Zrotation
													End Site
													{
														OFFSET 0.000000 0.000000 0.000000
													}
												}
											}
										}
										JOINT LeftHandMiddle1
										{
											OFFSET 25.764404 0.000000 0.000000
											CHANNELS 3 Xrotation Yrotation Zrotation
											JOINT LeftHandMiddle2
											{
												OFFSET 9.393974 0.000000 0.000000
												CHANNELS 3 Xrotation Yrotation Zrotation
												JOINT LeftHandMiddle3
												{
													OFFSET 10.771950 0.000000 0.000000
													CHANNELS 3 Xrotation Yrotation Zrotation
													End Site
													{
														OFFSET 0.000000 0.000000 0.000000
													}
												}
											}
										}
										JOINT LeftHandRing1
										{
											OFFSET 24.660927 0.144547 -6.225808
											CHANNELS 3 Xrotation Yrotation Zrotation
											JOINT LeftHandRing2
											{
												OFFSET 9.393799 0.000000 0.000000
												CHANNELS 3 Xrotation Yrotation Zrotation
												JOINT LeftHandRing3
												{
													OFFSET 9.928497 0.000000 0.000000
													CHANNELS 3 Xrotation Yrotation Zrotation
													End Site
													{
														OFFSET 0.000000 0.000000 0.000000
													}
												}
											}
										}
										JOINT LeftHandPinky1
										{
											OFFSET 23.655350 0.125290 -12.815412
											CHANNELS 3 Xrotation Yrotation Zrotation
											JOINT LeftHandPinky2
											{
												OFFSET 8.425102 0.000000 0.000000
												CHANNELS 3 Xrotation Yrotation Zrotation
												JOINT LeftHandPinky3
												{
													OFFSET 8.147003 0.000000 0.000000
													CHANNELS 3 Xrotation Yrotation Zrotation
													End Site
													{
														OFFSET 0.000000 0.000000 0.000000
													}
												}
											}
										}
									}
								}
							}
						}
					}
					JOINT RightShoulder
					{
						OFFSET -3.249400 8.794197 -1.372250
						CHANNELS 3 Xrotation Yrotation Zrotation
						JOINT RightShoulder_split
						{
							OFFSET -3.249400 8.794197 -1.372250
							CHANNELS 3 Xrotation Yrotation Zrotation
							JOINT RightArm
							{
								OFFSET -11.953299 -2.279007 -0.146200
								CHANNELS 3 Xrotation Yrotation Zrotation
								JOINT RightForeArm
								{
									OFFSET -18.448900 0.000000 0.000000
									CHANNELS 3 Xrotation Yrotation Zrotation
									JOINT RightHand
									{
										OFFSET -29.527802 0.000000 0.000000
										CHANNELS 3 Xrotation Yrotation Zrotation
										JOINT RightHandThumb1
										{
											OFFSET -10.739754 -2.369614 9.225399
											CHANNELS 3 Xrotation Yrotation Zrotation
											JOINT RightHandThumb2
											{
												OFFSET -4.926170 -2.844131 2.844125
												CHANNELS 3 Xrotation Yrotation Zrotation
												JOINT RightHandThumb3
												{
													OFFSET -4.614891 -2.664413 2.664409
													CHANNELS 3 Xrotation Yrotation Zrotation
													JOINT RightHandThumb4
													{
														OFFSET -4.432465 -2.559082 2.559083
														CHANNELS 3 Xrotation Yrotation Zrotation
														End Site
														{
															OFFSET 0.000000 0.000000 0.000000
														}
													}
												}
											}
										}
										JOINT RightHandIndex1
										{
											OFFSET -26.467674 0.187653 6.405298
											CHANNELS 3 Xrotation Yrotation Zrotation
											JOINT RightHandIndex2
											{
												OFFSET -8.792900 0.000000 0.000000
												CHANNELS 3 Xrotation Yrotation Zrotation
												JOINT RightHandIndex3
												{
													OFFSET -10.075203 0.000000 0.000000
													CHANNELS 3 Xrotation Yrotation Zrotation
													End Site
													{
														OFFSET 0.000000 0.000000 0.000000
													}
												}
											}
										}
										JOINT RightHandMiddle1
										{
											OFFSET -25.764404 0.000000 0.000000
											CHANNELS 3 Xrotation Yrotation Zrotation
											JOINT RightHandMiddle2
											{
												OFFSET -9.393974 0.000000 0.000000
												CHANNELS 3 Xrotation Yrotation Zrotation
												JOINT RightHandMiddle3
												{
													OFFSET -10.771950 0.000000 0.000000
													CHANNELS 3 Xrotation Yrotation Zrotation
													End Site
													{
														OFFSET 0.000000 0.000000 0.000000
													}
												}
											}
										}
										JOINT RightHandRing1
										{
											OFFSET -24.660927 0.144547 -6.225808
											CHANNELS 3 Xrotation Yrotation Zrotation
											JOINT RightHandRing2
											{
												OFFSET -9.393799 0.000000 0.000000
												CHANNELS 3 Xrotation Yrotation Zrotation
												JOINT RightHandRing3
												{
													OFFSET -9.928497 0.000000 0.000000
													CHANNELS 3 Xrotation Yrotation Zrotation
													End Site
													{
														OFFSET 0.000000 0.000000 0.000000
													}
												}
											}
										}
										JOINT RightHandPinky1
										{
											OFFSET -23.655350 0.125290 -12.815412
											CHANNELS 3 Xrotation Yrotation Zrotation
											JOINT RightHandPinky2
											{
												OFFSET -8.425102 0.000000 0.000000
												CHANNELS 3 Xrotation Yrotation Zrotation
												JOINT RightHandPinky3
												{
													OFFSET -8.147003 0.000000 0.000000
													CHANNELS 3 Xrotation Yrotation Zrotation
													End Site
													{
														OFFSET 0.000000 0.000000 0.000000
													}
												}
											}
										}
									}
								}
							}
						}
					}
				}
			}
		}
	}
	JOINT LeftUpLeg
	{
		OFFSET 11.394100 -6.187798 -0.413800
		CHANNELS 3 Xrotation Yrotation Zrotation
		JOINT LeftLeg
		{
			OFFSET 0.430247 -32.302673 3.732800
			CHANNELS 3 Xrotation Yrotation Zrotation
			JOINT LeftFoot
			{
				OFFSET -0.430247 -48.264931 -6.423300
				CHANNELS 3 Xrotation Yrotation Zrotation
				JOINT LeftToeBase
				{
					OFFSET 4.230900 -16.068199 23.438400
					CHANNELS 3 Xrotation Yrotation Zrotation
					JOINT LeftToe_End
					{
						OFFSET 4.510700 0.695400 19.974600
						CHANNELS 3 Xrotation Yrotation Zrotation
						End Site
						{
							OFFSET 0.000000 0.000000 0.000000
						}
					}
				}
			}
		}
	}
	JOINT RightUpLeg
	{
		OFFSET -11.333700 -6.187798 -0.413800
		CHANNELS 3 Xrotation Yrotation Zrotation
		JOINT RightLeg
		{
			OFFSET -0.430392 -32.302628 3.733000
			CHANNELS 3 Xrotation Yrotation Zrotation
			JOINT RightFoot
			{
				OFFSET 0.430392 -48.264973 -6.423500
				CHANNELS 3 Xrotation Yrotation Zrotation
				JOINT RightToeBase
				{
					OFFSET -4.230900 -16.068199 23.438400
					CHANNELS 3 Xrotation Yrotation Zrotation
					JOINT RightToe_End
					{
						OFFSET -4.510700 0.695400 19.974600
						CHANNELS 3 Xrotation Yrotation Zrotation
						End Site
						{
							OFFSET 0.000000 0.000000 0.000000
						}
					}
				}
			}
		}
	}
}
MOTION
Frames: 4
Frame Time: 0.016667
-0.301207 89.715752 0.171795 3.020389 -58.275113 6.520081 11.191478 0.139502 -2.738809 8.434582 0.027701 -5.592319 0.000000 0.000000 0.000000 8.457049 0.027881 -5.591869 -21.555727 25.063371 12.062603 -0.294014 25.465829 -3.208975 0.000000 0.000000 -0.000000 -6.221669 -11.503791 -4.023840 0.000000 0.000000 0.000000 -23.061661 9.569081 -36.639717 0.046282 -43.170829 -0.011045 22.743582 -5.684957 15.978963 -1.064228 -7.954929 8.490085 2.373403 19.986110 -2.038323 0.808190 1.237774 2.631736 0.000001 0.000000 0.000002 13.340884 -1.006685 10.682286 -0.167586 0.303435 -31.105665 0.000000 -0.000000 -0.000000 8.495424 -0.329546 -0.915313 0.231528 0.661190 -29.901827 0.000001 -0.000000 -0.000001 6.111747 3.150885 -16.210949 0.047077 0.322410 -30.125454 0.000000 -0.000000 -0.000001 -5.636027 7.709903 -13.878618 0.224374 0.276566 -46.588362 -0.000000 -0.000002 0.000001 -5.488241 10.658253 2.466549 0.000000 0.000000 0.000000 -41.473165 -26.756168 30.079470 24.953744 111.863916 -23.306726 -8.702492 12.422812 -9.802166 0.265000 10.061079 -10.888491 1.383791 -17.412865 3.016275 3.342362 -13.253730 -8.262774 -0.000003 0.000003 -0.000000 19.443599 11.174411 -13.340177 -0.118675 -0.322689 18.035596 0.000001 0.000001 -0.000001 4.320463 2.436966 -4.811724 0.349136 -0.461259 26.890308 0.000002 0.000000 -0.000000 -7.005617 -10.695134 5.719851 0.111883 -0.089191 26.155899 -0.000001 0.000002 0.000001 -19.433524 -20.238202 5.987863 0.223782 -0.085781 36.844629 -0.000002 0.000001 0.000002 -38.837043 8.057333 26.427607 42.580069 -7.215241 -9.677548 -5.193101 -2.782154 -10.043085 -0.327615 1.238439 0.837254 -0.000000 -0.000005 -0.000000 -36.666600 -6.170694 -25.574716 47.502347 1.669178 -7.598032 -14.419050 3.655469 21.028464 -0.322744 -0.997328 -0.837145 -0.000000 -0.000001 -0.000000 
-0.289756 89.717545 0.210227 3.044000 -58.245237 6.538527 11.191486 0.138920 -2.741284 8.434581 0.027705 -5.592324 0.000000 0.000000 0.000000 8.457049 0.027865 -5.591859 -21.547768 25.033955 12.079118 -0.272045 25.428501 -3.263954 -0.000000 -0.000000 0.000000 -6.224955 -11.506065 -4.040197 0.000000 0.000000 0.000000 -23.270314 9.617849 -36.667860 0.069773 -43.129520 0.031106 23.501489 -5.369452 16.129545 -1.038530 -7.796631 8.549064 2.420518 20.133384 -1.982851 0.844457 1.387011 2.703128 0.000000 0.000001 -0.000002 13.341393 -1.007241 10.512653 -0.167399 0.303525 -31.275361 0.000001 -0.000001 0.000002 8.492717 -0.327831 -1.084966 0.232459 0.661762 -30.071510 0.000000 -0.000001 -0.000004 6.109957 3.152842 -16.380440 0.047136 0.323611 -30.295178 -0.000001 0.000000 -0.000003 -5.636750 7.710933 -14.047779 0.225073 0.277134 -46.757986 0.000000 0.000002 -0.000000 -5.494056 10.657938 2.495528 0.000000 0.000000 0.000000 -41.054437 -26.626316 30.531588 28.810093 112.648268 -27.515636 -7.502674 11.836799 -10.784958 0.243513 10.220478 -10.828473 1.330404 -17.266329 3.075567 3.320058 -13.102338 -8.195409 0.000001 -0.000003 0.000002 19.443330 11.174237 -13.513179 -0.118824 -0.322577 17.863214 -0.000000 -0.000003 -0.000006 4.323246 2.438537 -4.984191 0.348168 -0.460556 26.717945 0.000001 -0.000003 -0.000000 -7.004229 -10.693723 5.546725 0.111878 -0.088047 25.983447 -0.000002 0.000002 0.000003 -19.432995 -20.237523 5.812512 0.223204 -0.085076 36.672201 0.000002 0.000000 0.000001 -38.868301 8.060229 26.402960 42.606098 -7.236202 -9.684127 -5.209842 -2.783654 -10.005844 -0.327598 1.238471 0.837254 0.000000 -0.000000 -0.000000 -36.636602 -6.169477 -25.601448 47.455212 1.648059 -7.595078 -14.408108 3.651091 21.067165 -0.322756 -0.997419 -0.837122 -0.000000 -0.000001 0.000000 
-0.253792 89.723122 0.319700 3.065327 -58.214959 6.554852 11.191532 0.137217 -2.748609 8.427930 0.021791 -5.590524 0.000000 0.000000 0.000000 8.450536 0.024361 -5.590744 -21.522819 24.948429 12.125790 -0.210774 25.320596 -3.422931 0.000000 0.000000 0.000000 -6.234552 -11.512579 -4.088058 0.000000 0.000000 0.000000 -23.549884 9.594476 -36.642572 0.138503 -42.979283 0.153755 24.249772 -5.074749 16.216145 -1.011764 -7.630822 8.610738 2.469886 20.287624 -1.924794 0.882263 1.543330 2.777785 0.000001 0.000000 -0.000000 13.341957 -1.007908 10.334939 -0.167208 0.303607 -31.453066 0.000001 0.000002 0.000003 8.489888 -0.326100 -1.262665 0.233445 0.662286 -30.249282 0.000001 0.000002 0.000002 6.109458 3.154880 -16.558100 0.047212 0.324726 -30.472851 -0.000001 -0.000000 -0.000002 -5.635091 7.712067 -14.225270 0.225748 0.277700 -46.935772 -0.000000 -0.000001 -0.000000 -5.511174 10.663419 2.580825 0.000000 0.000000 0.000000 -40.669433 -26.535548 30.926591 30.091911 112.878479 -29.366361 -7.446031 11.442781 -11.863736 0.220555 10.390402 -10.764406 1.272172 -17.106788 3.140230 3.296353 -12.942775 -8.124412 -0.000002 0.000001 0.000001 19.443040 11.174034 -13.701400 -0.118992 -0.322430 17.675433 -0.000001 0.000001 -0.000000 4.326285 2.440260 -5.171983 0.347172 -0.459880 26.530154 -0.000001 -0.000003 0.000002 -7.002671 -10.692169 5.358380 0.111876 -0.086784 25.795755 -0.000001 0.000003 0.000002 -19.432436 -20.236754 5.622102 0.222566 -0.084405 36.484459 0.000000 0.000000 0.000002 -38.910351 8.073351 26.341845 42.691028 -7.255259 -9.699963 -5.273275 -2.785545 -9.918338 -0.327637 1.238441 0.837270 0.000000 0.000000 0.000000 -36.554865 -6.170082 -25.683410 47.327217 1.652445 -7.582634 -14.367825 3.643919 21.153060 -0.322776 -0.997450 -0.837153 -0.000000 -0.000001 0.000000 
-0.194906 89.732262 0.495482 3.086047 -58.184592 6.570288 11.191293 0.130469 -2.759697 8.417017 0.011631 -5.587466 0.000000 0.000000 0.000000 8.439833 0.017452 -5.588562 -21.483274 24.810486 12.200241 -0.116150 25.146472 -3.675493 0.000001 0.000000 0.000000 -6.250108 -11.523035 -4.165729 0.000000 0.000000 0.000000 -23.890550 9.502006 -36.578914 0.247227 -42.732300 0.348603 24.987914 -4.799927 16.250137 -0.984033 -7.458102 8.674858 2.521175 20.448140 -1.864330 0.921427 1.706130 2.855432 -0.000001 -0.000000 0.000001 13.342524 -1.008610 10.149954 -0.167020 0.303756 -31.638095 -0.000001 0.000000 -0.000001 8.486901 -0.324310 -1.447686 0.234531 0.663173 -30.434295 -0.000000 -0.000001 0.000001 6.108906 3.157014 -16.743049 0.047342 0.325778 -30.657905 0.000000 0.000000 -0.000003 -5.633356 7.713217 -14.410126 0.226468 0.278276 -47.120785 0.000000 0.000000 -0.000000 -5.532800 10.672752 2.720151 0.000000 0.000000 0.000000 -40.331809 -26.475751 31.254078 31.604467 113.060845 -31.458154 -7.371035 11.217561 -13.032105 0.196113 10.570074 -10.696631 1.209441 -16.935288 3.209917 3.271335 -12.775550 -8.049980 -0.000001 -0.000001 0.000000 19.442731 11.173831 -13.903709 -0.119175 -0.322238 17.473490 0.000001 0.000003 0.000002 4.329545 2.442094 -5.373983 0.346110 -0.458886 26.328270 -0.000000 -0.000003 -0.000002 -7.000959 -10.690037 5.156135 0.111883 -0.085441 25.593844 0.000000 0.000003 0.000005 -19.431125 -20.232608 5.419755 0.221914 -0.083633 36.282494 -0.000001 0.000000 0.000002 -38.962507 8.097264 26.246440 42.828920 -7.272281 -9.724069 -5.379245 -2.787794 -9.781804 -0.327648 1.238434 0.837281 0.000000 -0.000001 -0.000000 -36.423958 -6.171236 -25.815222 47.121680 1.677668 -7.561153 -14.298998 3.634322 21.282357 -0.322737 -0.997424 -0.837139 -0.000000 0.000002 0.000000 
